<svg width="50" height="50" viewBox="0 0 50 50" fill="none" xmlns="http://www.w3.org/2000/svg">
<path d="M24.9938 4.20312C28.1744 4.20312 30.9782 5.10243 33.4053 6.90104C38.4782 10.6615 40.374 15.7691 39.0928 22.224C38.69 24.2517 37.5615 26.974 35.7073 30.3906C32.8775 35.6128 29.3532 40.7049 25.1344 45.6667C25.1101 45.7014 25.0667 45.7187 25.0042 45.7187C24.9452 45.7187 24.9018 45.7014 24.874 45.6667C20.6553 40.7083 17.1292 35.6181 14.2959 30.3958C12.4382 26.9792 11.308 24.2587 10.9053 22.2344C9.62053 15.7795 11.5129 10.6701 16.5823 6.90625C19.0094 5.10764 21.8132 4.2066 24.9938 4.20312ZM24.999 39.125C25.0129 39.125 25.0268 39.125 25.0407 39.125C25.0496 39.1213 25.0592 39.1148 25.0691 39.1059C25.0789 39.0969 25.0887 39.0857 25.098 39.0729C29.6118 33.0903 32.7212 27.8229 34.4261 23.2708C36.3497 18.1285 35.348 13.9115 31.4209 10.6198C29.6292 9.11979 27.4869 8.36979 24.9938 8.36979C22.5007 8.36979 20.3601 9.12153 18.5719 10.625C14.6448 13.9167 13.6431 18.1337 15.5667 23.276C17.275 27.8247 20.3862 33.0903 24.9 39.0729C24.9093 39.0857 24.9191 39.0969 24.9289 39.1058C24.9388 39.1148 24.9484 39.1213 24.9573 39.125C24.9712 39.125 24.9851 39.125 24.999 39.125Z" fill="#149DE5"/>
<path d="M25 23.9375C27.865 23.9375 30.1875 21.615 30.1875 18.75C30.1875 15.885 27.865 13.5625 25 13.5625C22.135 13.5625 19.8125 15.885 19.8125 18.75C19.8125 21.615 22.135 23.9375 25 23.9375Z" fill="#149DE5"/>
</svg>
