<svg width="50" height="50" viewBox="0 0 50 50" fill="none" xmlns="http://www.w3.org/2000/svg">
<path d="M25.0284 8.33203C32.9242 8.34245 37.985 8.35634 40.2107 8.3737C42.0579 8.38759 43.2506 8.55946 43.7888 8.88932C46.2107 10.3789 45.893 12.6914 45.8253 15.9102C45.8238 15.9977 45.8005 16.0833 45.7577 16.1588C45.7149 16.2344 45.654 16.2976 45.5805 16.3424C41.6951 18.7765 34.8808 23.0195 25.1378 29.0716C25.1239 29.082 25.0788 29.0872 25.0024 29.0872C24.926 29.0872 24.8791 29.082 24.8617 29.0716C15.1395 22.9918 8.33917 18.7296 4.4607 16.2852C4.38722 16.2403 4.32625 16.1771 4.28346 16.1015C4.24067 16.026 4.21743 15.9404 4.21591 15.8529C4.15862 12.6341 3.84612 10.3216 6.2732 8.83724C6.8114 8.50738 8.0041 8.33898 9.85133 8.33203C12.077 8.32161 17.136 8.32161 25.0284 8.33203ZM41.419 14.2591C41.5924 14.1517 41.726 13.9906 41.7996 13.8004C41.8731 13.6102 41.8827 13.4012 41.8267 13.205C41.7708 13.0089 41.6524 12.8364 41.4895 12.7136C41.3266 12.5908 41.1282 12.5245 40.9242 12.5247L9.11695 12.4674C8.91255 12.4661 8.71331 12.5316 8.54958 12.654C8.38584 12.7763 8.26658 12.9488 8.20996 13.1452C8.15334 13.3416 8.16246 13.5512 8.23593 13.7419C8.30941 13.9327 8.4432 14.0942 8.61695 14.2018L24.5024 24.1602C24.6515 24.2535 24.8238 24.303 24.9998 24.303C25.1757 24.303 25.348 24.2535 25.4972 24.1602L41.419 14.2591Z" fill="#149DE5"/>
<path d="M24.9766 37.5003C35.1085 37.5142 40.5182 37.5177 41.2057 37.5108C41.325 37.5094 41.4389 37.461 41.5228 37.3762C41.6066 37.2914 41.6537 37.1769 41.6537 37.0576V23.7868C41.6534 23.7301 41.6687 23.6742 41.698 23.6248C41.7273 23.5753 41.7696 23.5342 41.8203 23.5056L45.7891 21.2139C45.7928 21.2111 45.7972 21.2097 45.8018 21.2096C45.8064 21.2096 45.811 21.2109 45.8152 21.2136C45.8194 21.2162 45.8231 21.22 45.8258 21.2246C45.8285 21.2293 45.8302 21.2345 45.8307 21.2399C45.8238 29.1184 45.8169 34.4517 45.8099 37.2399C45.8064 38.9934 45.0929 40.3059 43.6693 41.1774C43.0269 41.5698 41.4835 41.7434 39.0391 41.6983C38.5321 41.6878 33.8429 41.6774 24.9714 41.667C16.0998 41.6531 11.4106 41.6514 10.9037 41.6618C8.45921 41.7 6.91755 41.5212 6.27866 41.1253C4.85505 40.2503 4.14498 38.9361 4.14845 37.1826C4.14845 34.3944 4.15539 29.0611 4.16928 21.1826C4.1698 21.1772 4.17151 21.172 4.17423 21.1673C4.17696 21.1627 4.18061 21.1589 4.18482 21.1563C4.18903 21.1536 4.19366 21.1523 4.19824 21.1523C4.20282 21.1524 4.20721 21.1539 4.21095 21.1566L8.17449 23.4587C8.22525 23.4873 8.26746 23.5285 8.29676 23.5779C8.32606 23.6273 8.34138 23.6833 8.34116 23.7399L8.3047 37.0108C8.3033 37.1301 8.349 37.2451 8.43188 37.3309C8.51476 37.4167 8.62814 37.4664 8.74741 37.4691C9.43491 37.476 14.8446 37.4865 24.9766 37.5003Z" fill="#149DE5"/>
</svg>
