<svg width="50" height="50" viewBox="0 0 50 50" fill="none" xmlns="http://www.w3.org/2000/svg">
<path d="M38.5443 43.1654C38.5443 44.4251 38.0438 45.6333 37.153 46.5241C36.2622 47.4149 35.054 47.9154 33.7943 47.9154H16.2109C14.9512 47.9154 13.743 47.4149 12.8522 46.5241C11.9614 45.6333 11.4609 44.4251 11.4609 43.1654V6.83203C11.4609 5.57225 11.9614 4.36407 12.8522 3.47327C13.743 2.58248 14.9512 2.08203 16.2109 2.08203H33.7943C35.054 2.08203 36.2622 2.58248 37.153 3.47327C38.0438 4.36407 38.5443 5.57225 38.5443 6.83203V43.1654ZM25.0026 44.7904C28.8811 44.7904 31.7457 44.7799 33.5964 44.7591C34.8151 44.7487 35.4245 44.1133 35.4245 42.8529C35.4141 20.3945 35.4158 8.55773 35.4297 7.34245C35.4401 6.25391 35.237 5.4987 34.1016 5.25911C33.803 5.19661 31.8533 5.18099 28.2526 5.21224C28.1593 5.21223 28.0686 5.24278 27.9943 5.29921C27.92 5.35564 27.8662 5.43486 27.8411 5.52474C27.3064 7.37196 26.3602 8.29557 25.0026 8.29557C23.6484 8.29557 22.7023 7.37196 22.1641 5.52474C22.139 5.43486 22.0853 5.35564 22.011 5.29921C21.9366 5.24278 21.8459 5.21223 21.7526 5.21224C18.1519 5.18099 16.2023 5.19661 15.9036 5.25911C14.7682 5.4987 14.5651 6.25391 14.5755 7.34245C14.5894 8.55773 14.5894 20.3945 14.5755 42.8529C14.5755 44.1133 15.1849 44.7487 16.4036 44.7591C18.2543 44.7799 21.1207 44.7904 25.0026 44.7904Z" fill="#149DE5"/>
</svg>
