<svg width="1499" height="458" viewBox="0 0 1499 458" fill="none" xmlns="http://www.w3.org/2000/svg">
<path d="M300.042 36.7557C300.084 36.8128 300.11 36.8808 300.115 36.9518C300.12 37.0227 300.104 37.0936 300.07 37.1561C300.036 37.2186 299.985 37.2702 299.923 37.3046C299.861 37.3391 299.79 37.355 299.719 37.3506C293.72 37.1086 287.035 36.796 281.34 37.4817C276.664 38.0564 272.534 37.9152 267.626 38.5605C254.781 40.2342 243.37 42.6205 233.392 45.7192C209.836 53.0325 188.592 65.1753 169.661 82.1478C167.318 84.2517 163.511 88.0764 158.24 93.6218C154.126 97.9439 150.595 102.007 147.647 105.812C128.271 130.83 115.271 159.102 108.646 190.627C107.037 198.29 106.273 205.411 106.354 211.992C106.358 212.157 106.317 212.32 106.235 212.464C106.154 212.607 106.034 212.727 105.888 212.812C105.743 212.896 105.576 212.942 105.404 212.945C105.232 212.948 105.062 212.908 104.91 212.829C104.284 212.5 103.957 211.831 103.93 210.822C103.089 180.198 108.98 151.221 121.603 123.89C145.263 72.6701 189.747 27.6813 245.682 13.2027C247.264 12.7926 249.711 13.1018 253.024 14.1303C261.702 16.8257 266.078 18.1835 266.152 18.2037C276.472 21.7326 286.877 27.1066 297.366 34.3258C298.598 35.1795 299.49 35.9894 300.042 36.7557Z" fill="white"/>
<path d="M181.808 443.377C181.794 443.436 181.767 443.49 181.729 443.536C181.69 443.581 181.641 443.617 181.585 443.64C181.53 443.662 181.47 443.672 181.41 443.666C181.35 443.661 181.293 443.641 181.242 443.609C149.883 423.289 121.429 399.545 95.8802 372.375C57.7687 331.863 27.3826 282.509 17.5366 227.064C15.8905 217.768 15.5068 210.71 14.4263 199.034C14.3388 198.087 14.3017 194.662 14.3152 188.76C14.3219 184.693 14.5609 181.275 15.0322 178.506C15.4967 175.784 15.7458 173.398 15.7795 171.347C15.8199 169.028 16.0723 166.625 16.5369 164.138C24.454 121.932 44.4657 87.7287 76.572 61.5272C101.636 41.0695 134.638 27.0043 168.195 24.9172C169.016 24.8634 172.834 24.5979 179.647 24.1206C184.669 23.7711 189.725 24.1139 194.814 25.1491C194.934 25.1724 195.044 25.2339 195.126 25.3243C195.208 25.4147 195.258 25.5293 195.269 25.6507C195.281 25.7722 195.252 25.8941 195.189 25.9981C195.125 26.1022 195.029 26.1828 194.915 26.2279C191.724 27.5185 188.796 28.8696 186.13 30.2811C145.605 51.6866 114.603 85.8365 99.1723 128.889C81.9343 177.014 85.9231 232.368 108.19 278.798C124.398 312.585 149.119 340.08 181.414 358.582C181.653 358.72 181.851 358.918 181.987 359.158C182.124 359.397 182.194 359.668 182.191 359.943C182.07 393.875 182.087 419.797 182.242 437.711C182.269 440.09 182.124 441.979 181.808 443.377Z" fill="white"/>
<path d="M167.686 114.77C167.666 114.118 168.248 113.16 169.433 111.897C195.251 84.371 226.284 67.1734 262.53 60.3037C265.802 59.6786 268.859 59.2283 271.7 58.9527C278.991 58.2368 285.797 57.2991 293.381 57.773C294.808 57.8604 296.303 58.5225 297.865 59.7593C333.946 88.2528 355.941 130.479 360.97 175.76C361.387 179.538 361.528 186.411 361.394 196.379C361.293 203.692 360.741 210.525 359.738 216.877C348.397 288.887 291.513 345.592 219.491 356.411C210.584 357.749 202.61 358.505 195.568 358.679C194.161 358.713 192.854 358.296 191.649 357.429C185.153 352.771 178.474 346.826 171.614 339.593C152.393 319.334 138.969 295.653 131.342 268.551C131.309 268.434 131.304 268.311 131.326 268.192C131.349 268.073 131.399 267.961 131.472 267.864C131.546 267.767 131.64 267.689 131.749 267.635C131.858 267.581 131.978 267.553 132.099 267.552C164.461 267.532 182.063 267.546 184.904 267.593C195.85 267.768 204.101 267.247 209.655 266.03C235.426 260.374 256.299 242.951 265.681 218.41C280.899 178.583 260.632 135.288 221.581 120.053C212.957 116.686 204.033 115.005 194.81 115.012C180.78 115.019 172.57 115.009 170.18 114.982C169.594 114.972 168.999 115.163 168.362 115.305C168.283 115.322 168.2 115.322 168.12 115.304C168.041 115.285 167.966 115.249 167.901 115.198C167.837 115.147 167.784 115.082 167.747 115.008C167.709 114.934 167.689 114.853 167.686 114.77Z" fill="white"/>
<path d="M582.404 113.927C582.441 118.172 581.64 122.383 580.048 126.318C578.455 130.254 576.101 133.838 573.121 136.866C570.141 139.894 566.593 142.306 562.68 143.965C558.766 145.623 554.564 146.496 550.312 146.533L543.769 146.59C539.517 146.627 535.3 145.828 531.358 144.237C527.416 142.647 523.826 140.297 520.794 137.322C517.761 134.347 515.345 130.804 513.684 126.897C512.023 122.989 511.149 118.793 511.112 114.548L511.056 108.156C511.019 103.911 511.819 99.7009 513.412 95.765C515.005 91.8291 517.358 88.245 520.338 85.2173C523.318 82.1895 526.866 79.7775 530.78 78.1188C534.694 76.4602 538.896 75.5874 543.148 75.5504L549.691 75.4934C553.943 75.4564 558.16 76.2558 562.102 77.846C566.044 79.4361 569.634 81.786 572.666 84.7613C575.699 87.7367 578.114 91.2792 579.776 95.1868C581.437 99.0943 582.311 103.29 582.348 107.535L582.404 113.927ZM547.06 132.051C552.239 131.97 557.172 129.68 560.772 125.684C564.372 121.688 566.345 116.315 566.258 110.745C566.17 105.176 564.029 99.867 560.305 95.9863C556.58 92.1056 551.579 89.971 546.399 90.0523C541.22 90.1335 536.288 92.4239 532.688 96.4195C529.088 100.415 527.114 105.789 527.202 111.358C527.29 116.928 529.431 122.237 533.155 126.117C536.879 129.998 541.881 132.133 547.06 132.051Z" fill="white"/>
<path d="M1059.66 114.129C1056.82 111.454 1053.63 108.557 1050.07 105.438C1050.03 105.403 1049.98 105.381 1049.93 105.374C1049.88 105.367 1049.82 105.375 1049.77 105.397C1049.73 105.419 1049.68 105.455 1049.65 105.499C1049.63 105.544 1049.61 105.596 1049.61 105.65V141.977C1049.61 142.098 1049.56 142.213 1049.47 142.298C1049.39 142.383 1049.27 142.431 1049.14 142.431H1036.54C1036.36 142.431 1036.2 142.361 1036.07 142.236C1035.95 142.111 1035.88 141.942 1035.88 141.766V76.3393C1035.87 76.1822 1035.92 76.0279 1036 75.8955C1036.09 75.7631 1036.21 75.6583 1036.35 75.594C1036.5 75.5297 1036.65 75.5087 1036.81 75.5336C1036.96 75.5586 1037.1 75.6283 1037.22 75.7343C1049.05 86.4017 1059.56 96.0643 1068.76 104.722C1071.59 107.39 1074.78 110.288 1078.34 113.413C1078.38 113.447 1078.43 113.469 1078.48 113.477C1078.54 113.484 1078.59 113.476 1078.64 113.454C1078.69 113.432 1078.73 113.396 1078.76 113.351C1078.79 113.307 1078.8 113.255 1078.8 113.201V76.8736C1078.8 76.8141 1078.82 76.7551 1078.84 76.7C1078.86 76.645 1078.9 76.5949 1078.94 76.5528C1078.98 76.5107 1079.03 76.4773 1079.09 76.4545C1079.15 76.4317 1079.21 76.4199 1079.27 76.4199H1091.87C1091.96 76.4199 1092.04 76.4371 1092.13 76.4706C1092.21 76.504 1092.28 76.553 1092.34 76.6148C1092.4 76.6766 1092.45 76.75 1092.49 76.8307C1092.52 76.9115 1092.54 76.998 1092.54 77.0854V142.512C1092.54 142.669 1092.49 142.823 1092.41 142.955C1092.32 143.088 1092.2 143.193 1092.06 143.257C1091.92 143.321 1091.76 143.342 1091.6 143.317C1091.45 143.292 1091.31 143.223 1091.19 143.117C1079.37 132.449 1068.85 122.787 1059.66 114.129Z" fill="white"/>
<path d="M719.083 112.346C719.097 120.43 715.895 128.188 710.179 133.914C704.464 139.64 696.705 142.865 688.609 142.879L682.388 142.89C674.292 142.904 666.522 139.706 660.787 134C655.052 128.294 651.822 120.547 651.808 112.463L651.797 106.454C651.783 98.3702 654.986 90.612 660.701 84.8859C666.416 79.1599 674.175 75.9351 682.271 75.921L688.492 75.9102C696.588 75.8961 704.359 79.0938 710.094 84.7999C715.829 90.506 719.058 98.2531 719.073 106.337L719.083 112.346ZM685.192 130.501C690.404 130.565 695.429 128.407 699.163 124.502C702.896 120.597 705.032 115.266 705.1 109.68C705.168 104.094 703.164 98.7121 699.527 94.7174C695.89 90.7228 690.919 88.4429 685.708 88.3793C680.496 88.3157 675.471 90.4737 671.738 94.3785C668.004 98.2832 665.868 103.615 665.8 109.201C665.732 114.786 667.737 120.169 671.373 124.163C675.01 128.158 679.981 130.438 685.192 130.501Z" fill="white"/>
<path d="M760.159 116.697C760.428 116.697 760.731 116.405 761.068 115.82C762.522 113.292 770.005 100.057 783.517 76.1144C783.589 75.9894 783.696 75.8883 783.826 75.8238C783.955 75.7593 784.1 75.7341 784.244 75.7514C784.836 75.8186 785.193 76.1413 785.314 76.7194C790.613 103.196 794.955 124.783 798.341 141.48C798.362 141.586 798.36 141.695 798.334 141.8C798.308 141.904 798.259 142.001 798.192 142.084C798.124 142.167 798.039 142.234 797.943 142.28C797.846 142.325 797.741 142.348 797.634 142.347H785.001C784.836 142.348 784.676 142.291 784.549 142.186C784.422 142.081 784.335 141.935 784.304 141.773L778.861 113.138C778.848 113.066 778.818 112.999 778.773 112.941C778.729 112.883 778.671 112.837 778.606 112.807C778.54 112.776 778.469 112.762 778.397 112.765C778.326 112.768 778.256 112.789 778.195 112.825C778.087 112.886 777.953 113.067 777.791 113.37C777.347 114.176 771.809 123.95 761.179 142.69C760.943 143.107 760.614 143.315 760.189 143.315C759.765 143.315 759.435 143.107 759.2 142.69C748.529 123.977 742.968 114.217 742.517 113.41C742.356 113.108 742.221 112.926 742.113 112.866C742.052 112.829 741.982 112.808 741.911 112.805C741.839 112.802 741.768 112.816 741.702 112.847C741.637 112.877 741.58 112.924 741.535 112.981C741.491 113.039 741.46 113.107 741.447 113.178L736.074 141.833C736.044 141.995 735.957 142.141 735.83 142.246C735.703 142.351 735.543 142.408 735.378 142.408L722.744 142.438C722.638 142.439 722.533 142.416 722.436 142.37C722.34 142.325 722.255 142.258 722.187 142.175C722.119 142.092 722.071 141.995 722.045 141.89C722.019 141.786 722.017 141.677 722.038 141.571C725.383 124.867 729.675 103.27 734.913 76.7799C735.034 76.2018 735.391 75.8791 735.983 75.8119C736.126 75.7936 736.271 75.8173 736.4 75.88C736.529 75.9427 736.637 76.0417 736.711 76.1648C750.276 100.081 757.789 113.299 759.25 115.82C759.587 116.405 759.89 116.697 760.159 116.697Z" fill="white"/>
<path d="M968.174 125.367C968.208 125.354 968.244 125.349 968.281 125.354C968.317 125.358 968.352 125.371 968.382 125.392C968.412 125.413 968.436 125.441 968.453 125.474C968.469 125.506 968.477 125.543 968.477 125.579V138.061C968.477 138.392 968.381 138.715 968.2 138.993C968.019 139.27 967.761 139.49 967.457 139.624C960.196 142.8 953.046 143.657 944.372 142.911C903.21 139.352 905.25 77.1825 945.927 75.8213C953.026 75.5894 960.872 75.9423 966.699 79.6023C966.978 79.778 967.208 80.0219 967.367 80.311C967.525 80.6002 967.609 80.9253 967.608 81.2559V93.2139C967.608 93.295 967.586 93.3746 967.545 93.4443C967.503 93.5141 967.444 93.5716 967.373 93.6107C967.302 93.6498 967.221 93.6691 967.14 93.6668C967.059 93.6644 966.98 93.6403 966.911 93.597C958.065 87.9508 944.008 86.156 935.768 93.4055C931.042 97.5662 928.823 103.276 929.113 110.536C929.911 129.905 949.441 134.18 964.235 127.092C965.669 126.399 966.982 125.825 968.174 125.367Z" fill="white"/>
<path d="M1001.44 75.7031C1001.68 75.7031 1001.88 75.8308 1002.03 76.0863C1003.06 77.9683 1004.07 80.005 1005.06 82.1963C1010.71 94.7795 1019.69 114.575 1031.98 141.583C1032.02 141.678 1032.04 141.783 1032.03 141.887C1032.02 141.991 1031.99 142.091 1031.93 142.178C1031.87 142.265 1031.8 142.336 1031.7 142.386C1031.61 142.435 1031.51 142.461 1031.4 142.46L1018.41 142.349C1018.06 142.346 1017.72 142.241 1017.43 142.047C1017.15 141.854 1016.92 141.58 1016.79 141.26L1013.22 132.599C1013.15 132.449 1013.05 132.32 1012.91 132.231C1012.78 132.141 1012.62 132.094 1012.46 132.095C1012.24 132.089 1008.54 132.082 1001.37 132.075C994.195 132.062 990.495 132.058 990.273 132.065C990.113 132.064 989.956 132.111 989.821 132.2C989.686 132.29 989.58 132.419 989.516 132.569L985.921 141.22C985.788 141.539 985.562 141.812 985.273 142.004C984.983 142.196 984.643 142.299 984.295 142.299L971.298 142.38C971.195 142.378 971.093 142.352 971.003 142.302C970.912 142.252 970.835 142.18 970.779 142.093C970.723 142.006 970.69 141.907 970.682 141.804C970.674 141.7 970.691 141.597 970.733 141.502C983.1 114.528 992.128 94.756 997.817 82.1863C998.806 79.995 999.823 77.9616 1000.87 76.0863C1001.01 75.8308 1001.2 75.7031 1001.44 75.7031ZM994.02 120.611C994 120.659 993.992 120.711 993.997 120.763C994.002 120.814 994.02 120.864 994.049 120.907C994.078 120.95 994.117 120.985 994.163 121.009C994.209 121.033 994.261 121.045 994.313 121.045H1008.17C1008.22 121.045 1008.27 121.033 1008.32 121.009C1008.36 120.985 1008.4 120.95 1008.43 120.907C1008.46 120.864 1008.48 120.814 1008.48 120.763C1008.49 120.711 1008.48 120.659 1008.46 120.611L1001.53 104.217C1001.51 104.157 1001.47 104.106 1001.42 104.07C1001.37 104.034 1001.3 104.015 1001.24 104.015C1001.18 104.015 1001.11 104.034 1001.06 104.07C1001.01 104.106 1000.97 104.157 1000.95 104.217L994.02 120.611Z" fill="white"/>
<path d="M1096.55 141.957C1097.33 139.624 1097.8 138.28 1097.97 137.924C1101.88 129.669 1110.76 110.28 1124.61 79.7568C1124.93 79.051 1125.49 77.8915 1126.29 76.2783C1126.37 76.1194 1126.49 75.9862 1126.64 75.8941C1126.79 75.802 1126.97 75.7548 1127.14 75.758C1127.32 75.7611 1127.5 75.8145 1127.64 75.912C1127.79 76.0095 1127.91 76.147 1127.98 76.3085L1157.83 141.977C1157.85 142.022 1157.86 142.07 1157.86 142.119C1157.85 142.167 1157.84 142.213 1157.81 142.253C1157.78 142.293 1157.75 142.326 1157.71 142.348C1157.67 142.37 1157.62 142.381 1157.57 142.38H1144.32C1143.84 142.38 1143.37 142.237 1142.97 141.97C1142.57 141.702 1142.26 141.322 1142.08 140.878L1138.69 132.59C1138.63 132.435 1138.52 132.302 1138.38 132.209C1138.24 132.115 1138.08 132.066 1137.91 132.066H1116.13C1115.81 132.065 1115.5 132.16 1115.23 132.338C1114.97 132.517 1114.77 132.769 1114.65 133.064L1111.13 141.846C1111.06 142.006 1110.95 142.144 1110.81 142.241C1110.67 142.338 1110.5 142.39 1110.33 142.39H1096.86C1096.81 142.389 1096.76 142.377 1096.71 142.353C1096.66 142.329 1096.62 142.294 1096.59 142.252C1096.56 142.21 1096.54 142.161 1096.54 142.11C1096.53 142.059 1096.53 142.006 1096.55 141.957ZM1119.76 120.178C1119.72 120.272 1119.71 120.375 1119.72 120.476C1119.73 120.578 1119.76 120.676 1119.82 120.761C1119.87 120.847 1119.95 120.917 1120.04 120.967C1120.13 121.016 1120.23 121.043 1120.33 121.045L1133.34 121.116C1133.44 121.116 1133.54 121.09 1133.63 121.041C1133.72 120.992 1133.8 120.922 1133.86 120.836C1133.91 120.75 1133.95 120.652 1133.96 120.549C1133.97 120.447 1133.95 120.344 1133.91 120.249L1127.5 104.822C1127.45 104.707 1127.37 104.608 1127.27 104.538C1127.16 104.468 1127.04 104.431 1126.92 104.431C1126.79 104.431 1126.67 104.468 1126.57 104.538C1126.46 104.608 1126.38 104.707 1126.34 104.822L1119.76 120.178Z" fill="white"/>
<path d="M418.447 124.151C418.294 124.151 418.148 124.211 418.04 124.319C417.932 124.427 417.871 124.573 417.871 124.725V144.689C417.871 144.994 417.75 145.286 417.534 145.502C417.318 145.717 417.025 145.838 416.72 145.838H402.572C402.369 145.838 402.173 145.759 402.029 145.617C401.886 145.475 401.805 145.283 401.805 145.082V76.7118C401.805 76.5575 401.865 76.4091 401.972 76.2981C402.079 76.1871 402.226 76.1221 402.38 76.1169C412.923 75.7271 422.638 75.8783 431.524 76.5706C434.695 76.8227 441.108 78.3956 444.147 80.2306C449.695 83.5714 452.714 88.8547 453.206 96.0806C453.741 103.854 453.226 111.073 447.54 116.599C444.208 119.845 440.243 121.845 435.645 122.598C429.229 123.647 423.496 124.164 418.447 124.151ZM417.902 89.9906L417.861 110.015C417.861 110.106 417.897 110.193 417.962 110.257C418.026 110.321 418.113 110.358 418.205 110.358L425.304 110.378C426.785 110.381 428.253 110.17 429.623 109.756C430.993 109.343 432.238 108.736 433.288 107.969C434.337 107.202 435.17 106.291 435.739 105.287C436.308 104.284 436.602 103.207 436.604 102.12V97.966C436.608 95.7712 435.424 93.6642 433.313 92.1081C431.201 90.552 428.335 89.6743 425.344 89.668L418.245 89.6478C418.154 89.6478 418.067 89.684 418.002 89.7482C417.938 89.8125 417.902 89.8997 417.902 89.9906Z" fill="white"/>
<path d="M512.199 144.416C512.29 144.548 512.342 144.702 512.351 144.861C512.36 145.02 512.325 145.179 512.25 145.32C512.175 145.461 512.063 145.579 511.926 145.662C511.789 145.744 511.632 145.787 511.472 145.787H494.598C494.121 145.787 493.652 145.664 493.236 145.429C492.82 145.194 492.472 144.855 492.225 144.446C488.953 139.022 485.593 133.614 482.147 128.223C479.703 124.412 479.188 122.153 474.603 122.688C474.263 122.73 473.95 122.894 473.723 123.15C473.496 123.407 473.371 123.737 473.371 124.079V144.91C473.371 145.142 473.277 145.366 473.111 145.53C472.944 145.695 472.718 145.787 472.482 145.787H458.042C457.801 145.787 457.569 145.691 457.399 145.521C457.229 145.351 457.133 145.12 457.133 144.88V76.6402C457.133 76.4966 457.19 76.3585 457.291 76.2551C457.393 76.1516 457.532 76.0909 457.678 76.0857C467.177 75.8168 475.478 75.8639 482.581 76.2268C489.024 76.5495 498.769 78.5257 503.06 83.6174C507.847 89.304 507.675 95.1419 507.514 102.422C507.339 110.535 503.713 116.46 496.638 120.197C496.53 120.254 496.435 120.333 496.361 120.429C496.286 120.525 496.232 120.636 496.203 120.754C496.175 120.872 496.172 120.995 496.194 121.115C496.217 121.234 496.265 121.348 496.335 121.448L512.199 144.416ZM473.381 90.1308L473.512 108.905C473.512 108.951 473.522 108.997 473.539 109.04C473.557 109.083 473.583 109.121 473.616 109.154C473.649 109.187 473.688 109.213 473.731 109.231C473.774 109.248 473.819 109.258 473.866 109.258L480.42 109.207C483.188 109.188 485.839 108.416 487.787 107.063C489.736 105.709 490.824 103.884 490.811 101.988L490.771 96.8055C490.765 95.8665 490.488 94.9386 489.958 94.0746C489.427 93.2107 488.652 92.4277 487.678 91.7704C486.704 91.1131 485.549 90.5944 484.279 90.2439C483.009 89.8933 481.65 89.7179 480.278 89.7275L473.725 89.7779C473.633 89.7805 473.545 89.8189 473.481 89.8848C473.417 89.9507 473.381 90.0389 473.381 90.1308Z" fill="white"/>
<path d="M860.483 104.753C863.304 107.421 866.485 110.315 870.026 113.434C870.066 113.468 870.115 113.49 870.167 113.497C870.219 113.505 870.273 113.498 870.321 113.477C870.369 113.456 870.411 113.422 870.441 113.379C870.471 113.336 870.488 113.285 870.491 113.232L870.531 76.9852C870.531 76.9256 870.543 76.8666 870.566 76.8116C870.59 76.7565 870.624 76.7065 870.667 76.6644C870.71 76.6223 870.761 76.5888 870.818 76.566C870.874 76.5432 870.934 76.5315 870.995 76.5315L883.568 76.5517C883.745 76.5517 883.914 76.6218 884.039 76.7466C884.164 76.8714 884.234 77.0407 884.234 77.2171L884.154 142.492C884.152 142.648 884.106 142.801 884.02 142.932C883.935 143.063 883.813 143.166 883.671 143.229C883.529 143.292 883.371 143.313 883.219 143.287C883.066 143.262 882.924 143.192 882.811 143.087C871.029 132.433 860.557 122.781 851.394 114.13C848.567 111.461 845.382 108.567 841.841 105.449C841.801 105.415 841.752 105.393 841.7 105.385C841.648 105.378 841.595 105.385 841.546 105.406C841.498 105.427 841.457 105.461 841.427 105.504C841.397 105.547 841.379 105.598 841.377 105.65L841.326 141.897C841.326 141.957 841.314 142.016 841.291 142.071C841.268 142.126 841.233 142.176 841.19 142.218C841.147 142.26 841.096 142.294 841.04 142.316C840.983 142.339 840.923 142.351 840.862 142.351L828.289 142.331C828.114 142.328 827.947 142.257 827.824 142.132C827.702 142.008 827.633 141.84 827.633 141.665L827.714 76.3904C827.717 76.2361 827.763 76.0855 827.849 75.9566C827.934 75.8277 828.054 75.7258 828.194 75.6632C828.335 75.6005 828.49 75.5797 828.641 75.6031C828.792 75.6266 828.933 75.6933 829.047 75.7955C840.835 86.4495 851.314 96.1019 860.483 104.753Z" fill="white"/>
<path d="M647.764 109.178C647.794 124.232 641.826 135.998 626.163 139.85C615.075 142.582 602.261 142.431 591.627 142.189C591.455 142.186 591.29 142.116 591.169 141.993C591.048 141.871 590.981 141.705 590.981 141.533C591.007 129.192 591.011 118.444 590.991 109.289C590.977 100.134 590.933 89.3826 590.859 77.0347C590.859 76.8643 590.926 76.7006 591.044 76.5783C591.163 76.4559 591.325 76.3846 591.496 76.3793C602.129 76.097 614.944 75.8953 626.042 78.5874C641.725 82.3785 647.734 94.1248 647.764 109.178ZM604.947 88.5692L604.866 129.706C604.866 129.776 604.894 129.843 604.943 129.892C604.992 129.941 605.059 129.969 605.128 129.969L613.338 129.979C615.902 129.983 618.442 129.537 620.812 128.667C623.182 127.796 625.336 126.517 627.152 124.904C628.967 123.291 630.408 121.375 631.393 119.265C632.377 117.154 632.886 114.892 632.889 112.606L632.909 105.75C632.916 101.135 630.867 96.7061 627.212 93.4369C623.557 90.1677 618.596 88.3261 613.419 88.3172L605.209 88.3071C605.14 88.3071 605.073 88.3347 605.024 88.3839C604.974 88.433 604.947 88.4997 604.947 88.5692Z" fill="white"/>
<path d="M804.681 76.4805L817.708 76.5006C817.925 76.5006 818.133 76.5867 818.287 76.7398C818.44 76.893 818.526 77.1007 818.526 77.3173L818.496 141.705C818.496 141.868 818.433 142.026 818.321 142.144C818.208 142.262 818.054 142.333 817.89 142.34C812.629 142.542 804.156 143.58 804.156 135.676C804.163 96.676 804.163 77.1224 804.156 77.0148C804.156 76.8731 804.212 76.7372 804.31 76.637C804.409 76.5368 804.542 76.4805 804.681 76.4805Z" fill="white"/>
<path d="M894.213 76.4102L907.27 76.4202C907.487 76.4202 907.695 76.5063 907.848 76.6594C908.002 76.8126 908.088 77.0203 908.088 77.2369V141.756C908.088 141.919 908.025 142.076 907.912 142.195C907.799 142.313 907.645 142.383 907.482 142.391C902.211 142.603 893.718 143.641 893.718 135.726C893.704 96.646 893.694 77.0521 893.688 76.9445C893.688 76.8028 893.743 76.6669 893.841 76.5667C893.94 76.4665 894.073 76.4102 894.213 76.4102Z" fill="white"/>
<path d="M1169.36 226.375C1186.21 226.581 1200.03 213.68 1200.23 197.56C1200.43 181.441 1186.92 168.207 1170.07 168.001C1153.22 167.796 1139.39 180.696 1139.2 196.816C1139 212.936 1152.5 226.17 1169.36 226.375Z" fill="white"/>
<path d="M549.697 195.262L527.804 218.492C527.751 218.549 527.687 218.594 527.616 218.624C527.544 218.654 527.467 218.668 527.39 218.667C527.313 218.665 527.237 218.646 527.167 218.613C527.097 218.579 527.035 218.531 526.986 218.472C518.18 207.956 504.789 200.757 490.853 201.16C486.653 201.281 482.462 200.878 478.564 201.866C455.075 207.795 440.109 226.538 439.17 250.505C438.422 269.611 448.127 287.538 464.921 297.248C472.676 301.731 481.597 303.758 491.682 303.328C505.284 302.753 518.089 296.209 526.935 285.885C526.994 285.816 527.066 285.76 527.147 285.72C527.229 285.681 527.318 285.659 527.408 285.657C527.499 285.654 527.589 285.67 527.672 285.704C527.756 285.738 527.832 285.789 527.894 285.854C536.505 294.888 542.837 301.57 546.89 305.899C548.276 307.377 549.02 308.187 549.121 308.329C549.714 309.149 549.441 310.117 548.303 311.232C536.589 322.754 522.502 330.255 506.041 333.737C498.155 335.411 489.803 336.52 482.492 335.461C475.847 334.503 471.535 334.181 465.931 332.628C432.687 323.483 407.35 297.268 402.533 262.816C402.189 260.369 402.071 255.425 402.179 247.984C402.26 242.721 402.863 237.824 403.987 233.294C413.651 194.455 448.945 168.785 488.4 168.684C511.801 168.617 532.227 177.113 549.677 194.173C549.823 194.315 549.906 194.51 549.91 194.713C549.914 194.917 549.837 195.114 549.697 195.262Z" fill="white"/>
<path d="M1014.21 252.11C1014.21 261.171 1016.3 269.56 1020.47 277.276C1027.6 290.478 1038.85 298.887 1054.22 302.503C1056.7 303.088 1060.89 303.299 1066.79 303.138C1080.38 302.765 1093.18 296.262 1101.92 285.998C1102 285.905 1102.1 285.831 1102.21 285.778C1102.32 285.726 1102.43 285.698 1102.56 285.695C1102.68 285.692 1102.8 285.715 1102.91 285.762C1103.02 285.809 1103.12 285.879 1103.2 285.967L1124.8 308.976C1124.94 309.122 1125.02 309.315 1125.01 309.514C1125.01 309.714 1124.93 309.904 1124.78 310.045C1107.69 326.822 1087.01 335.406 1062.75 335.796C1061.6 335.816 1057.78 335.419 1051.3 334.606C1021.68 330.916 997.241 312.313 984.578 286.391C979.448 275.905 976.883 264.481 976.883 252.12C976.876 239.759 979.434 228.332 984.558 217.839C997.201 191.906 1021.63 173.294 1051.25 169.583C1057.73 168.763 1061.55 168.363 1062.7 168.384C1086.96 168.76 1107.64 177.33 1124.74 194.094C1124.89 194.235 1124.97 194.425 1124.97 194.625C1124.98 194.824 1124.9 195.017 1124.76 195.163L1103.18 218.192C1103.1 218.28 1103 218.35 1102.89 218.397C1102.78 218.444 1102.66 218.467 1102.54 218.464C1102.41 218.461 1102.3 218.433 1102.19 218.381C1102.08 218.329 1101.98 218.254 1101.9 218.162C1093.15 207.897 1080.35 201.404 1066.76 201.041C1060.86 200.887 1056.67 201.102 1054.19 201.687C1038.82 205.31 1027.58 213.725 1020.45 226.933C1016.29 234.65 1014.21 243.042 1014.21 252.11Z" fill="white"/>
<path d="M627.336 172.668C633.765 172.668 639.276 172.695 643.867 172.749C644.201 172.752 644.528 172.853 644.806 173.042C645.084 173.23 645.302 173.496 645.432 173.807L709.961 331.086C710.001 331.183 710.017 331.287 710.006 331.391C709.996 331.495 709.96 331.594 709.902 331.681C709.845 331.767 709.766 331.839 709.674 331.888C709.583 331.937 709.48 331.963 709.376 331.964H671.88C671.587 331.963 671.301 331.876 671.059 331.712C670.816 331.549 670.627 331.317 670.517 331.046L660.893 307.594C660.774 307.301 660.569 307.05 660.305 306.873C660.041 306.695 659.729 306.599 659.409 306.596C658.136 306.589 647.452 306.586 627.356 306.586C607.254 306.586 596.566 306.592 595.294 306.606C594.973 306.609 594.662 306.705 594.398 306.883C594.134 307.06 593.929 307.311 593.809 307.604L584.196 331.056C584.085 331.327 583.897 331.559 583.654 331.722C583.411 331.886 583.125 331.973 582.832 331.974L545.337 331.984C545.233 331.983 545.13 331.957 545.038 331.908C544.946 331.859 544.868 331.788 544.81 331.701C544.752 331.614 544.716 331.515 544.706 331.411C544.696 331.308 544.711 331.203 544.751 331.107L609.24 173.807C609.37 173.496 609.588 173.23 609.866 173.042C610.144 172.853 610.471 172.752 610.805 172.749C615.396 172.695 620.907 172.668 627.336 172.668ZM627.336 274.735C638.182 274.741 644.823 274.718 647.26 274.664C647.302 274.664 647.344 274.654 647.381 274.634C647.418 274.614 647.449 274.585 647.472 274.55C647.495 274.515 647.509 274.475 647.513 274.433C647.516 274.392 647.509 274.35 647.492 274.311C642.113 260.747 636.283 246.244 630.002 230.804C628.945 228.203 628.167 225.672 627.669 223.212C627.629 222.997 627.528 222.89 627.366 222.89C627.211 222.89 627.11 222.997 627.063 223.212C626.565 225.672 625.788 228.203 624.731 230.804C618.429 246.238 612.582 260.733 607.19 274.291C607.173 274.329 607.166 274.37 607.169 274.411C607.172 274.452 607.185 274.491 607.207 274.526C607.229 274.561 607.259 274.59 607.295 274.61C607.331 274.631 607.371 274.642 607.412 274.644C609.856 274.698 616.497 274.728 627.336 274.735Z" fill="white"/>
<path d="M902.661 306.506C882.586 306.519 871.912 306.533 870.639 306.546C870.321 306.547 870.01 306.642 869.746 306.817C869.482 306.993 869.276 307.243 869.155 307.534L859.561 330.977C859.451 331.248 859.262 331.481 859.019 331.644C858.776 331.808 858.49 331.895 858.198 331.894L820.743 331.914C820.639 331.914 820.536 331.888 820.444 331.839C820.352 331.789 820.274 331.718 820.216 331.631C820.158 331.545 820.123 331.445 820.112 331.342C820.102 331.238 820.118 331.133 820.157 331.037L884.505 173.889C884.632 173.576 884.848 173.308 885.127 173.117C885.405 172.927 885.733 172.824 886.07 172.82C890.654 172.766 896.158 172.74 902.581 172.74C909.003 172.733 914.51 172.753 919.102 172.8C919.435 172.805 919.76 172.908 920.037 173.096C920.313 173.284 920.529 173.549 920.657 173.859L985.196 330.946C985.236 331.043 985.251 331.147 985.241 331.251C985.231 331.354 985.195 331.454 985.137 331.541C985.079 331.627 985.001 331.698 984.909 331.748C984.817 331.797 984.715 331.823 984.61 331.824L947.155 331.834C946.864 331.835 946.579 331.75 946.337 331.588C946.094 331.427 945.904 331.196 945.792 330.926L936.168 307.494C936.047 307.202 935.841 306.953 935.577 306.777C935.313 306.601 935.002 306.507 934.684 306.506C933.411 306.493 922.737 306.493 902.661 306.506ZM902.762 223.617L882.667 273.747C882.622 273.861 882.606 273.983 882.62 274.104C882.634 274.225 882.677 274.34 882.745 274.441C882.814 274.541 882.906 274.623 883.014 274.68C883.122 274.736 883.242 274.766 883.363 274.766H922.091C922.196 274.765 922.3 274.738 922.393 274.689C922.486 274.639 922.565 274.568 922.624 274.481C922.683 274.395 922.719 274.295 922.73 274.192C922.741 274.089 922.726 273.985 922.687 273.889C912.11 247.775 905.93 232.412 904.146 227.801C903.715 226.678 903.378 225.297 903.136 223.657C903.132 223.613 903.113 223.572 903.082 223.541C903.051 223.509 903.01 223.49 902.966 223.485C902.922 223.48 902.878 223.491 902.841 223.515C902.804 223.539 902.776 223.575 902.762 223.617Z" fill="white"/>
<path d="M718.147 172.83C750.044 172.776 773.968 172.797 789.916 172.891C818.697 173.062 841.752 194.639 843.943 223.203C845.801 247.532 833.723 270.007 810.568 278.9C803.62 281.568 795.703 283.01 786.816 283.225C778.266 283.427 767.784 283.457 755.37 283.316C755.3 283.314 755.23 283.327 755.166 283.353C755.101 283.38 755.042 283.419 754.992 283.469C754.942 283.518 754.902 283.578 754.875 283.643C754.848 283.709 754.834 283.779 754.834 283.85V331.057C754.834 331.287 754.743 331.508 754.58 331.67C754.417 331.833 754.196 331.924 753.966 331.924H718.42C718.203 331.924 717.995 331.838 717.841 331.685C717.688 331.532 717.602 331.324 717.602 331.107V173.385C717.602 173.312 717.616 173.24 717.643 173.172C717.67 173.105 717.711 173.044 717.761 172.993C717.812 172.941 717.872 172.9 717.938 172.872C718.004 172.844 718.075 172.83 718.147 172.83ZM754.935 205.861L754.774 249.841C754.774 250.184 754.91 250.512 755.152 250.754C755.395 250.996 755.724 251.132 756.066 251.132L783.292 251.233C786.384 251.244 789.449 250.655 792.31 249.5C795.172 248.346 797.774 246.648 799.968 244.504C802.162 242.36 803.906 239.812 805.099 237.004C806.292 234.197 806.912 231.186 806.922 228.143V227.922C806.943 221.777 804.483 215.875 800.081 211.515C795.68 207.155 789.699 204.693 783.453 204.671L756.228 204.57C755.885 204.57 755.556 204.706 755.314 204.948C755.072 205.19 754.935 205.519 754.935 205.861Z" fill="white"/>
<path d="M1279.64 172.819C1319.58 172.799 1340.48 172.772 1342.33 172.738C1342.4 172.737 1342.48 172.751 1342.55 172.78C1342.63 172.809 1342.69 172.852 1342.75 172.906C1342.8 172.96 1342.85 173.025 1342.88 173.097C1342.91 173.169 1342.92 173.246 1342.92 173.323V203.813C1342.92 203.931 1342.9 204.048 1342.85 204.156C1342.81 204.265 1342.74 204.364 1342.66 204.448C1342.58 204.531 1342.48 204.597 1342.37 204.642C1342.26 204.687 1342.14 204.71 1342.02 204.71H1298.86C1298.76 204.71 1298.66 204.752 1298.58 204.826C1298.51 204.899 1298.47 204.999 1298.47 205.104V331.288C1298.47 331.444 1298.41 331.594 1298.3 331.705C1298.18 331.816 1298.03 331.88 1297.87 331.883C1297.44 331.89 1291.39 331.893 1279.71 331.893C1268.03 331.9 1261.97 331.903 1261.54 331.903C1261.38 331.9 1261.23 331.837 1261.12 331.725C1261.01 331.614 1260.94 331.464 1260.94 331.308L1260.84 205.124C1260.84 205.02 1260.8 204.92 1260.73 204.846C1260.65 204.772 1260.55 204.731 1260.45 204.731L1217.29 204.761C1217.05 204.761 1216.82 204.666 1216.65 204.498C1216.48 204.33 1216.39 204.101 1216.39 203.864L1216.36 173.374C1216.36 173.296 1216.37 173.219 1216.4 173.147C1216.43 173.076 1216.48 173.011 1216.53 172.956C1216.59 172.902 1216.66 172.859 1216.73 172.83C1216.8 172.802 1216.88 172.787 1216.96 172.789C1218.81 172.822 1239.7 172.832 1279.64 172.819Z" fill="white"/>
<path d="M1400.68 306.537C1380.59 306.544 1369.91 306.55 1368.63 306.557C1368.31 306.56 1368 306.656 1367.74 306.834C1367.47 307.012 1367.27 307.263 1367.15 307.555L1357.54 330.997C1357.43 331.268 1357.25 331.5 1357 331.663C1356.76 331.827 1356.47 331.914 1356.18 331.915L1318.7 331.925C1318.59 331.925 1318.49 331.899 1318.4 331.849C1318.31 331.8 1318.23 331.729 1318.17 331.642C1318.11 331.555 1318.08 331.456 1318.07 331.352C1318.06 331.249 1318.07 331.144 1318.11 331.048L1382.57 173.829C1382.7 173.516 1382.91 173.248 1383.19 173.058C1383.47 172.867 1383.8 172.764 1384.13 172.76C1388.73 172.707 1394.23 172.68 1400.65 172.68C1407.08 172.68 1412.59 172.707 1417.19 172.76C1417.52 172.763 1417.85 172.865 1418.13 173.053C1418.41 173.242 1418.62 173.508 1418.75 173.819L1483.25 331.028C1483.29 331.124 1483.31 331.228 1483.29 331.332C1483.28 331.436 1483.25 331.535 1483.19 331.622C1483.13 331.709 1483.05 331.78 1482.96 331.829C1482.87 331.878 1482.77 331.904 1482.66 331.905H1445.19C1444.9 331.904 1444.61 331.817 1444.37 331.653C1444.12 331.49 1443.94 331.258 1443.83 330.987L1434.2 307.545C1434.08 307.252 1433.88 307.002 1433.61 306.824C1433.35 306.646 1433.04 306.55 1432.72 306.547C1431.45 306.54 1420.77 306.537 1400.68 306.537ZM1400.58 222.629C1400.56 222.579 1400.53 222.537 1400.48 222.509C1400.43 222.481 1400.38 222.469 1400.32 222.473C1400.27 222.478 1400.22 222.499 1400.17 222.534C1400.13 222.569 1400.1 222.617 1400.09 222.669C1399.58 225.261 1399.46 227.378 1398.37 230.02C1391.77 246.138 1385.87 260.789 1380.68 273.97C1380.65 274.055 1380.64 274.148 1380.65 274.239C1380.66 274.33 1380.69 274.417 1380.74 274.492C1380.79 274.568 1380.86 274.629 1380.94 274.672C1381.02 274.714 1381.11 274.736 1381.2 274.736H1420.09C1420.2 274.737 1420.3 274.712 1420.39 274.665C1420.48 274.617 1420.56 274.548 1420.62 274.463C1420.67 274.379 1420.71 274.281 1420.72 274.179C1420.73 274.077 1420.72 273.974 1420.68 273.879C1418.57 268.535 1412.53 253.519 1402.55 228.83C1401.71 226.743 1401.39 224.625 1400.58 222.629Z" fill="white"/>
<path d="M1190.77 241.461C1190.84 241.461 1190.9 241.488 1190.95 241.535C1191 241.582 1191.02 241.646 1191.02 241.713C1191 273.043 1190.89 295.776 1190.7 309.912C1190.52 324.129 1181.54 334.786 1166.78 335.431C1160.39 335.707 1154.32 335.727 1148.57 335.492C1148.48 335.486 1148.4 335.449 1148.34 335.387C1148.29 335.324 1148.26 335.243 1148.26 335.159L1149.04 242.479C1149.04 242.208 1149.15 241.949 1149.34 241.759C1149.53 241.568 1149.79 241.461 1150.06 241.461H1190.77Z" fill="white"/>
<path d="M1216.99 242.096C1217.23 258.168 1217.08 274.555 1216.54 291.259C1216.24 300.736 1207.12 306.04 1198.65 306.282C1198.55 306.285 1198.45 306.266 1198.35 306.229C1198.26 306.191 1198.17 306.134 1198.1 306.062C1198.03 305.989 1197.97 305.903 1197.93 305.807C1197.89 305.712 1197.87 305.609 1197.87 305.506V241.965C1197.87 241.818 1197.92 241.677 1198.03 241.573C1198.13 241.469 1198.27 241.41 1198.41 241.41H1216.3C1216.48 241.41 1216.66 241.482 1216.79 241.61C1216.92 241.739 1216.99 241.913 1216.99 242.096Z" fill="white"/>
</svg>
