<svg width="500" height="500" viewBox="0 0 500 500" fill="none" xmlns="http://www.w3.org/2000/svg">
<path d="M374.918 35.468C374.965 35.5316 374.993 35.6075 374.999 35.6866C375.005 35.7658 374.987 35.8449 374.95 35.9146C374.912 35.9843 374.855 36.0418 374.785 36.0802C374.716 36.1187 374.636 36.1365 374.557 36.1315C367.864 35.8616 360.404 35.513 354.049 36.2777C348.832 36.9188 344.223 36.7613 338.747 37.4811C324.413 39.3481 311.68 42.0098 300.547 45.4663C274.262 53.624 250.557 67.1688 229.433 86.1008C226.819 88.4477 222.571 92.7139 216.689 98.8996C212.099 103.721 208.159 108.253 204.868 112.497C183.248 140.404 168.742 171.94 161.35 207.105C159.555 215.652 158.702 223.596 158.792 230.936C158.797 231.121 158.751 231.302 158.66 231.462C158.569 231.623 158.435 231.757 158.273 231.851C158.11 231.945 157.924 231.997 157.732 232C157.541 232.003 157.351 231.958 157.181 231.87C156.482 231.503 156.118 230.757 156.088 229.632C155.149 195.472 161.722 163.149 175.807 132.662C202.209 75.5289 251.846 25.3459 314.261 9.19556C316.026 8.73819 318.757 9.08309 322.453 10.2303C332.136 13.2369 337.019 14.7515 337.101 14.7739C348.618 18.7103 360.228 24.7048 371.932 32.7575C373.306 33.7097 374.302 34.6132 374.918 35.468Z" fill="#05B4E9"/>
<path d="M243.896 489.675C243.881 489.74 243.851 489.801 243.807 489.852C243.764 489.903 243.709 489.943 243.646 489.969C243.584 489.994 243.517 490.004 243.45 489.998C243.383 489.992 243.318 489.97 243.261 489.934C208.083 467.178 176.163 440.586 147.503 410.159C104.749 364.79 70.662 309.517 59.6168 247.425C57.7703 237.014 57.3398 229.11 56.1276 216.035C56.0295 214.973 55.9879 211.138 56.003 204.528C56.0106 199.974 56.2787 196.146 56.8073 193.045C57.3284 189.996 57.6079 187.324 57.6456 185.028C57.691 182.431 57.9742 179.74 58.4953 176.954C67.3767 129.688 89.8258 91.383 125.843 62.04C153.96 39.1294 190.981 23.3776 228.625 21.0402C229.547 20.98 233.829 20.6827 241.472 20.1482C247.106 19.7568 252.777 20.1407 258.487 21.3C258.621 21.3261 258.744 21.3949 258.836 21.4962C258.928 21.5975 258.985 21.7257 258.997 21.8618C259.01 21.9978 258.978 22.1343 258.907 22.2508C258.835 22.3674 258.727 22.4576 258.6 22.5082C255.02 23.9535 251.735 25.4666 248.744 27.0474C203.284 51.0194 168.505 89.264 151.196 137.479C131.858 191.374 136.333 253.364 161.312 305.362C179.494 343.2 207.226 373.992 243.454 394.712C243.722 394.867 243.944 395.089 244.097 395.357C244.251 395.625 244.33 395.928 244.326 396.237C244.19 434.237 244.209 463.267 244.383 483.329C244.413 485.994 244.251 488.109 243.896 489.675Z" fill="#004B97"/>
<path d="M226.778 122.14C226.756 121.408 227.408 120.332 228.737 118.914C257.682 88.0081 292.472 68.6989 333.109 60.9857C336.777 60.2838 340.203 59.7782 343.388 59.4688C351.562 58.665 359.193 57.6122 367.695 58.1442C369.295 58.2423 370.971 58.9857 372.722 60.3744C413.173 92.3666 437.831 139.777 443.469 190.619C443.937 194.86 444.096 202.577 443.945 213.769C443.832 221.981 443.213 229.652 442.088 236.784C429.374 317.636 365.601 381.304 284.857 393.451C274.871 394.953 265.931 395.802 258.037 395.998C256.459 396.036 254.995 395.568 253.644 394.594C246.36 389.364 238.873 382.689 231.182 374.568C209.634 351.821 194.584 325.232 186.033 294.803C185.996 294.671 185.99 294.534 186.016 294.4C186.041 294.266 186.097 294.14 186.179 294.032C186.261 293.923 186.368 293.835 186.489 293.774C186.611 293.714 186.746 293.682 186.882 293.682C223.163 293.659 242.896 293.674 246.081 293.727C258.354 293.923 267.603 293.338 273.83 291.972C302.722 285.621 326.123 266.059 336.641 238.505C353.702 193.788 330.98 145.177 287.2 128.072C277.532 124.291 267.528 122.404 257.187 122.412C241.458 122.419 232.254 122.408 229.575 122.378C228.918 122.366 228.25 122.581 227.537 122.74C227.447 122.76 227.355 122.76 227.265 122.739C227.176 122.718 227.092 122.678 227.02 122.621C226.947 122.563 226.888 122.491 226.846 122.407C226.805 122.324 226.781 122.233 226.778 122.14Z" fill="#512874"/>
</svg>
